<svg width="25" height="24" viewBox="0 0 25 24" fill="none" xmlns="http://www.w3.org/2000/svg">
    <path d="M2.875 12.8799V11.1199C2.875 10.0799 3.725 9.21994 4.775 9.21994C6.585 9.21994 7.325 7.93994 6.415 6.36994C5.895 5.46994 6.205 4.29994 7.115 3.77994L8.845 2.78994C9.635 2.31994 10.655 2.59994 11.125 3.38994L11.235 3.57994C12.135 5.14994 13.615 5.14994 14.525 3.57994L14.635 3.38994C15.105 2.59994 16.125 2.31994 16.915 2.78994L18.645 3.77994C19.555 4.29994 19.865 5.46994 19.345 6.36994C18.435 7.93994 19.175 9.21994 20.985 9.21994C22.025 9.21994 22.885 10.0699 22.885 11.1199V12.8799C22.885 13.9199 22.035 14.7799 20.985 14.7799C19.175 14.7799 18.435 16.0599 19.345 17.6299C19.865 18.5399 19.555 19.6999 18.645 20.2199L16.915 21.2099C16.125 21.6799 15.105 21.3999 14.635 20.6099L14.525 20.4199C13.625 18.8499 12.145 18.8499 11.235 20.4199L11.125 20.6099C10.655 21.3999 9.635 21.6799 8.845 21.2099L7.115 20.2199C6.205 19.6999 5.895 18.5299 6.415 17.6299C7.325 16.0599 6.585 14.7799 4.775 14.7799C3.725 14.7799 2.875 13.9199 2.875 12.8799Z" fill="#F98D3F" stroke-width="2" stroke-miterlimit="10" stroke-linecap="round" stroke-linejoin="round"/>

    <path d="M12.875 15C14.5319 15 15.875 13.6569 15.875 12C15.875 10.3431 14.5319 9 12.875 9C11.2181 9 9.875 10.3431 9.875 12C9.875 13.6569 11.2181 15 12.875 15Z" fill="#FFFFFF" stroke-width="2" stroke-miterlimit="10" stroke-linecap="round" stroke-linejoin="round"/>
</svg>
